<?xml version="1.0" encoding="utf-8"?>
<!-- Generator: Adobe Illustrator 27.0.0, SVG Export Plug-In . SVG Version: 6.00 Build 0)  -->
<svg version="1.1" xmlns="http://www.w3.org/2000/svg" xmlns:xlink="http://www.w3.org/1999/xlink" x="0px" y="0px"
	 viewBox="0 0 512 512" style="enable-background:new 0 0 512 512;" xml:space="preserve" fill="#8C2122">
<style type="text/css">
	.st0{fill:#FFFFFF;}
	.st1{fill-rule:evenodd;clip-rule:evenodd;fill:#FFFFFF;}
	.st2{fill:#8C2122;}
	.st3{fill:#162045;}
</style>
<g id="Pinterest">
</g>
<g id="WhatsApp">
</g>
<g id="Facebook">
</g>
<g id="Twitter">
</g>
<g id="YouTube">
</g>
<g id="Instagram">
</g>
<g id="LinkedIn">
</g>
<g id="Business">
</g>
<g id="Getting_Quotes">
</g>
<g id="Comments">
</g>
<g id="Medicare">
</g>
<g id="Time">
</g>
<g id="Arrows">
</g>
<g id="Video">
</g>
<g id="Health_Insurance">
</g>
<g id="Share">
</g>
<g id="Search">
</g>
<g id="Send">
</g>
<g id="Filter">
</g>
<g id="Location">
</g>
<g id="Like">
</g>
<g id="Compare">
</g>
<g id="Live_Chat">
</g>
<g id="Life_Insurance">
</g>
<g id="Chertificate">
</g>
<g id="Saving_Money">
</g>
<g id="Top_rates">
</g>
<g id="Auto_Insurance">
	<path d="M496,258.4c0-27.44-22.33-49.77-49.77-49.77h-51.27l-52.26-84.77c-15.14-24.55-41.39-39.2-70.23-39.2H172.22
		c-35.7,0-67.2,22.78-78.37,56.7l-22.16,67.27H16v174.87h87.73c6.39,25.14,29.14,43.82,56.25,43.82c27.1,0,49.86-18.68,56.25-43.82
		h84.77c6.39,25.14,29.14,43.82,56.25,43.82c27.1,0,49.86-18.68,56.25-43.82H496V258.4z M159.98,391.77
		c-12.43,0-22.54-10.11-22.54-22.54c0-12.43,10.11-22.53,22.54-22.53c12.43,0,22.54,10.11,22.54,22.53
		C182.51,381.66,172.4,391.77,159.98,391.77z M357.24,391.77c-12.43,0-22.54-10.11-22.54-22.54c0-12.43,10.11-22.53,22.54-22.53
		c12.43,0,22.54,10.11,22.54,22.53C379.78,381.66,369.67,391.77,357.24,391.77z M460.44,347.96h-49.21
		c-8.51-21.52-29.49-36.81-54-36.81c-24.52,0-45.49,15.29-54,36.81h-89.26c-8.51-21.52-29.48-36.81-54-36.81s-45.49,15.29-54,36.81
		H51.56V244.19h45.86l30.2-91.71c6.36-19.3,24.28-32.26,44.6-32.26h100.26c16.41,0,31.35,8.34,39.97,22.31l40.75,66.1h-70.72v35.56
		h92.64h9.93h61.19c7.84,0,14.21,6.38,14.21,14.21V347.96z"/>
</g>
<g id="Burger_Menu">
</g>
<g id="Date">
</g>
<g id="Motorcycle_Insurance">
</g>
<g id="Home">
</g>
<g id="Credit_Card">
</g>
<g id="No_fee">
</g>
<g id="Travel">
</g>
<g id="Students">
</g>
<g id="Rewards">
</g>
<g id="Credit_Cards">
</g>
<g id="Cash_Back">
</g>
<g id="CC_Icon">
</g>
<g id="Update_Date">
</g>
</svg>
