<?xml version="1.0" encoding="UTF-8"?>
<svg id="primary" xmlns="http://www.w3.org/2000/svg" viewBox="0 0 289.14 76.27">
  <defs>
    <style>
      .cls-1 {
        fill: #fff;
      }

      .cls-2 {
        fill: #8b2022;
      }
    </style>
  </defs>
  <path class="cls-2" d="m38.81,45.71c-.84,0-1.64-.34-2.23-.95l-8.23-8.59c-1.18-1.23-1.14-3.18.09-4.36s3.18-1.14,4.36.09l5.84,6.09,22.01-26.51c1.09-1.31,3.03-1.49,4.34-.4s1.49,3.03.4,4.34l-24.22,29.16c-.56.68-1.38,1.08-2.26,1.11h-.11"/>
  <path class="cls-1" d="m38.13,76.27C17.1,76.27,0,59.16,0,38.14S17.11,0,38.13,0c1.7,0,3.08,1.38,3.08,3.08s-1.38,3.08-3.08,3.08c-17.63,0-31.97,14.34-31.97,31.97s14.34,31.97,31.97,31.97,31.97-14.34,31.97-31.97c0-1.7,1.38-3.08,3.08-3.08s3.08,1.38,3.08,3.08c0,21.03-17.11,38.13-38.13,38.13"/>
  <path class="cls-1" d="m38.13,62c-13.16,0-23.87-10.71-23.87-23.87s10.71-23.87,23.87-23.87c1.7,0,3.08,1.38,3.08,3.08s-1.38,3.08-3.08,3.08c-9.76,0-17.7,7.94-17.7,17.7s7.94,17.7,17.7,17.7,17.7-7.94,17.7-17.7c0-1.7,1.38-3.08,3.08-3.08s3.08,1.38,3.08,3.08c0,13.16-10.71,23.87-23.87,23.87"/>
  <path class="cls-1" d="m104.09,32.1c-1.74,0-3.36-.31-4.86-.94-1.51-.63-2.83-1.51-3.96-2.64s-2.01-2.44-2.64-3.94-.94-3.11-.94-4.85.31-3.35.94-4.85c.63-1.5,1.51-2.81,2.64-3.94,1.13-1.13,2.45-2.01,3.96-2.64s3.13-.94,4.86-.94c1.23,0,2.42.17,3.56.51s2.21.83,3.2,1.46c.99.63,1.84,1.53,1.84,1.53.41.43.39,1.12-.03,1.54l-1.19,1.16c-.42.41-1.11.41-1.53-.02,0,0-1.08-1.11-2.23-1.66-1.14-.55-2.35-.82-3.63-.82-1.16,0-2.24.22-3.24.65-.99.43-1.86,1.04-2.6,1.83s-1.32,1.71-1.73,2.76-.62,2.19-.62,3.43.21,2.38.62,3.43.99,1.97,1.73,2.76c.74.79,1.61,1.4,2.6,1.83s2.07.65,3.24.65c1.28,0,2.49-.28,3.63-.84s2.22-1.65,2.22-1.65c.42-.42,1.11-.43,1.53,0l1.19,1.16c.43.41.44,1.11.02,1.53,0,0-.84.88-1.84,1.52-.99.64-2.06,1.13-3.2,1.47s-2.33.51-3.56.51"/>
  <path class="cls-1" d="m128.11,32.1c-1.69,0-3.27-.31-4.75-.94-1.47-.63-2.76-1.51-3.87-2.64s-1.97-2.44-2.59-3.94-.93-3.11-.93-4.85.31-3.35.93-4.85,1.48-2.81,2.59-3.94c1.11-1.13,2.4-2.01,3.87-2.64s3.05-.94,4.75-.94,3.27.31,4.75.94c1.47.63,2.76,1.51,3.87,2.64s1.97,2.44,2.59,3.94.92,3.11.92,4.85-.31,3.35-.92,4.85c-.62,1.5-1.48,2.81-2.59,3.94-1.11,1.13-2.4,2.01-3.87,2.64s-3.06.94-4.75.94m0-3.7c1.12,0,2.16-.22,3.12-.65.96-.43,1.8-1.04,2.52-1.83s1.28-1.71,1.68-2.76.6-2.19.6-3.43-.2-2.38-.6-3.43c-.4-1.05-.96-1.97-1.68-2.76-.72-.79-1.56-1.4-2.52-1.83s-2-.65-3.12-.65-2.16.22-3.12.65c-.96.43-1.8,1.04-2.52,1.83s-1.28,1.71-1.7,2.76c-.41,1.05-.62,2.19-.62,3.43s.21,2.37.62,3.43c.41,1.05.98,1.97,1.7,2.76.72.79,1.56,1.4,2.52,1.83s2,.65,3.12.65"/>
  <path class="cls-1" d="m145.98,31.72c-.59,0-1.08-.49-1.08-1.08V8.82c0-.59.49-1.08,1.08-1.08h1.85c.59,0,1.36.4,1.71.88l11.25,15.68c.35.48.63.39.63-.2l-.06-15.28c0-.59.48-1.08,1.08-1.08h1.71c.59,0,1.08.49,1.08,1.08v21.82c0,.59-.49,1.08-1.08,1.08h-1.51c-.59,0-1.36-.4-1.71-.88l-11.59-16.16c-.35-.48-.63-.39-.63.2l.06,15.76c0,.59-.48,1.08-1.08,1.08h-1.71Z"/>
  <path class="cls-1" d="m178.99,32.1c-1.87,0-3.64-.33-5.29-.98-1.66-.65-3.9-2.27-3.9-2.27-.48-.35-.59-1.02-.24-1.5l.94-1.28c.35-.48,1.04-.58,1.51-.23,0,0,2.07,1.51,3.29,2.04,1.22.53,2.53.79,3.92.79,1.05,0,1.98-.16,2.79-.48s1.44-.76,1.88-1.34c.45-.57.67-1.23.67-1.99,0-.98-.32-1.73-.98-2.24-.65-.51-2.33-.92-2.33-.92-.58-.14-1.53-.34-2.11-.44l-2.29-.39c-.59-.1-1.53-.32-2.1-.49,0,0-2.59-.76-3.61-1.8s-1.52-2.37-1.52-3.99c0-1.44.36-2.7,1.1-3.79.73-1.08,1.75-1.93,3.07-2.54s2.87-.91,4.68-.91,3.52.26,5.14.79c1.62.53,3.57,1.73,3.57,1.73.51.31.65.97.31,1.46l-.88,1.3c-.33.49-1.01.63-1.51.3,0,0-1.55-1.01-2.83-1.48s-2.59-.7-3.94-.7c-.96,0-1.8.15-2.52.45s-1.28.71-1.68,1.23c-.4.53-.6,1.11-.6,1.75,0,.87.29,1.54.87,2,.58.47,1.78.78,1.78.78.58.15,1.53.35,2.11.45l2.15.36c.59.1,1.53.31,2.11.47,0,0,3.17.89,4.32,1.97,1.15,1.07,1.73,2.52,1.73,4.35,0,1.46-.41,2.76-1.22,3.91-.81,1.14-1.94,2.03-3.38,2.67s-3.12.96-5.04.96"/>
  <path class="cls-1" d="m202.39,32.1c-2.03,0-3.81-.43-5.33-1.3s-2.69-2.1-3.51-3.7c-.82-1.6-1.12-4.58-1.12-4.58-.06-.59-.11-1.56-.11-2.16v-11.54c0-.59.49-1.08,1.08-1.08h1.95c.59,0,1.08.49,1.08,1.08v11.54c0,.59.05,1.56.1,2.16,0,0,.15,1.56.64,2.59s1.18,1.83,2.07,2.4c.89.57,1.94.86,3.15.86s2.27-.29,3.17-.86,1.59-1.37,2.07-2.4c.48-1.03.62-2.59.62-2.59.05-.59.1-1.56.1-2.16v-11.54c0-.59.49-1.08,1.08-1.08h1.95c.59,0,1.08.49,1.08,1.08v11.54c0,.59-.05,1.56-.11,2.16,0,0-.3,2.98-1.11,4.58-.81,1.6-1.97,2.83-3.48,3.7s-3.3,1.3-5.38,1.3"/>
  <path class="cls-1" d="m218.82,31.72c-.59,0-1.08-.49-1.08-1.08V8.82c0-.59.49-1.08,1.08-1.08h3.18c.59,0,1.29.44,1.55.97l6.08,12.61c.26.54.68.53.94,0l6.06-12.61c.26-.54.95-.97,1.55-.97h3.18c.59,0,1.08.49,1.08,1.08v21.82c0,.59-.49,1.08-1.08,1.08h-1.71c-.59,0-1.08-.49-1.08-1.08V14.03c0-.59-.22-.65-.48-.11l-7.53,15.13c-.26.53-.7.53-.96,0l-7.57-15.23c-.26-.53-.48-.48-.48.11v16.72c0,.59-.49,1.08-1.08,1.08h-1.65Z"/>
  <path class="cls-1" d="m249.28,31.72c-.59,0-1.08-.49-1.08-1.08V8.82c0-.59.49-1.08,1.08-1.08h15c.59,0,1.08.49,1.08,1.08v1.33c0,.59-.49,1.08-1.08,1.08h-10.89c-.59,0-1.08.49-1.08,1.08v4.52c0,.59.49,1.08,1.08,1.08h6.95c.59,0,1.08.49,1.08,1.08v1.27c0,.59-.49,1.08-1.08,1.08h-6.95c-.59,0-1.08.49-1.08,1.08v4.72c0,.59.49,1.08,1.08,1.08h11.03c.59,0,1.08.49,1.08,1.08v1.33c0,.59-.49,1.08-1.08,1.08h-15.14,0Z"/>
  <path class="cls-1" d="m271.24,31.72c-.59,0-1.08-.49-1.08-1.08V8.82c0-.59.49-1.08,1.08-1.08h8.49c.59,0,1.56.05,2.16.11,0,0,1.89.2,3.11.81,1.21.62,2.15,1.47,2.83,2.55.67,1.08,1.01,2.35,1.01,3.79,0,1.55-.43,2.91-1.28,4.06-.86,1.15-2.52,2.02-2.52,2.02-.53.27-.74.93-.48,1.47l4.1,8.21c.27.53,0,.97-.6.97h-2.4c-.59,0-1.29-.44-1.55-.97l-3.69-7.65c-.26-.53-.96-.97-1.55-.97h-3.53c-.59,0-1.08.49-1.08,1.08v7.43c0,.59-.49,1.08-1.08,1.08h-1.95,0Zm3.03-13.97c0,.59.49,1.08,1.08,1.08h4.01c.59,0,1.56-.07,2.15-.16,0,0,1.24-.19,2.02-.88.78-.7,1.17-1.62,1.17-2.76s-.39-2.09-1.17-2.77-2.02-.87-2.02-.87c-.59-.09-1.55-.16-2.15-.16h-4.01c-.59,0-1.08.49-1.08,1.08,0,0,0,5.44,0,5.44Z"/>
  <path class="cls-1" d="m104.09,68.98c-1.74,0-3.36-.31-4.86-.94-1.51-.63-2.83-1.51-3.96-2.64s-2.01-2.44-2.64-3.94-.94-3.11-.94-4.85.31-3.35.94-4.85c.63-1.5,1.51-2.81,2.64-3.94,1.13-1.13,2.45-2.01,3.96-2.64s3.13-.94,4.86-.94c1.23,0,2.42.17,3.56.51,1.14.34,2.21.83,3.2,1.46.99.63,1.84,1.53,1.84,1.53.41.43.39,1.12-.03,1.54l-1.19,1.16c-.42.41-1.11.41-1.53-.02,0,0-1.08-1.11-2.23-1.66-1.14-.55-2.35-.82-3.63-.82-1.16,0-2.24.22-3.24.65-.99.43-1.86,1.04-2.6,1.83s-1.32,1.71-1.73,2.76-.62,2.19-.62,3.43.21,2.38.62,3.43.99,1.97,1.73,2.76c.74.79,1.61,1.4,2.6,1.83s2.07.65,3.24.65c1.28,0,2.49-.28,3.63-.84s2.22-1.65,2.22-1.65c.42-.42,1.11-.43,1.53-.01l1.19,1.16c.43.41.44,1.11.02,1.53,0,0-.84.88-1.84,1.52-.99.64-2.06,1.13-3.2,1.47-1.14.34-2.33.51-3.56.51"/>
  <path class="cls-1" d="m127.99,68.98c-1.69,0-3.27-.31-4.75-.94-1.47-.63-2.76-1.51-3.87-2.64s-1.97-2.44-2.59-3.94-.93-3.11-.93-4.85.31-3.35.93-4.85,1.48-2.81,2.59-3.94c1.11-1.13,2.4-2.01,3.87-2.64s3.05-.94,4.75-.94,3.27.31,4.75.94c1.47.63,2.76,1.51,3.87,2.64s1.97,2.44,2.59,3.94.92,3.11.92,4.85-.31,3.35-.92,4.85c-.62,1.5-1.48,2.81-2.59,3.94-1.11,1.13-2.4,2.01-3.87,2.64s-3.06.94-4.75.94m0-3.7c1.12,0,2.16-.22,3.12-.65.96-.43,1.8-1.04,2.52-1.83s1.28-1.71,1.68-2.76.6-2.19.6-3.43-.2-2.38-.6-3.43c-.4-1.05-.96-1.97-1.68-2.76-.72-.79-1.56-1.4-2.52-1.83s-2-.65-3.12-.65-2.16.22-3.12.65c-.96.43-1.8,1.04-2.52,1.83s-1.28,1.71-1.7,2.76c-.41,1.05-.62,2.19-.62,3.43s.21,2.37.62,3.43c.41,1.05.98,1.97,1.7,2.76s1.56,1.4,2.52,1.83,2,.65,3.12.65"/>
  <path class="cls-1" d="m152.07,68.6c-.59,0-1.26-.45-1.47-1.01l-8.54-21.97c-.22-.55.1-1.01.69-1.01h2.26c.59,0,1.25.46,1.46,1.01l6.61,17.78c.21.56.55.56.76,0l6.68-17.78c.21-.56.87-1.01,1.46-1.01h2.09c.59,0,.9.45.69,1.01l-8.6,21.97c-.22.55-.88,1.01-1.47,1.01h-2.62Z"/>
  <path class="cls-1" d="m171.25,68.6c-.59,0-1.08-.49-1.08-1.08v-21.82c0-.59.49-1.08,1.08-1.08h15c.59,0,1.08.49,1.08,1.08v1.33c0,.59-.49,1.08-1.08,1.08h-10.89c-.59,0-1.08.49-1.08,1.08v4.52c0,.59.49,1.08,1.08,1.08h6.95c.59,0,1.08.49,1.08,1.08v1.27c0,.59-.49,1.08-1.08,1.08h-6.95c-.59,0-1.08.49-1.08,1.08v4.72c0,.59.49,1.08,1.08,1.08h11.03c.59,0,1.08.49,1.08,1.08v1.33c0,.59-.49,1.08-1.08,1.08h-15.14Z"/>
  <path class="cls-1" d="m195.83,68.61c-.59,0-1.08-.49-1.08-1.08v-21.82c0-.59.49-1.08,1.08-1.08h8.49c.59,0,1.56.05,2.16.11,0,0,1.89.2,3.11.81,1.21.62,2.15,1.47,2.83,2.55.67,1.08,1.01,2.35,1.01,3.79,0,1.55-.43,2.91-1.28,4.06-.86,1.15-2.52,2.02-2.52,2.02-.53.27-.74.93-.48,1.47l4.1,8.21c.27.53,0,.97-.6.97h-2.4c-.59,0-1.29-.44-1.55-.97l-3.69-7.65c-.26-.53-.96-.97-1.55-.97h-3.53c-.59,0-1.08.49-1.08,1.08v7.43c0,.59-.49,1.08-1.08,1.08h-1.95,0Zm3.03-13.97c0,.59.49,1.08,1.08,1.08h4.01c.59,0,1.56-.07,2.15-.16,0,0,1.24-.19,2.02-.88.78-.7,1.17-1.62,1.17-2.76s-.39-2.09-1.17-2.77-2.02-.87-2.02-.87c-.59-.09-1.55-.16-2.15-.16h-4.01c-.59,0-1.08.49-1.08,1.08v5.44Z"/>
  <path class="cls-1" d="m219,68.6c-.59,0-.9-.45-.69-1.01l8.63-21.97c.22-.55.88-1.01,1.48-1.01h2.6c.59,0,1.26.45,1.47,1.01l8.51,21.97c.22.55-.1,1.01-.69,1.01h-2.26c-.59,0-1.25-.46-1.45-1.01l-1.72-4.69c-.2-.56-.86-1.01-1.45-1.01h-7.67c-.59,0-1.25.46-1.45,1.01l-1.72,4.69c-.21.56-.86,1.01-1.45,1.01h-2.14Zm7.24-10.95c-.21.56.11,1.01.71,1.01h5.34c.59,0,.91-.45.7-1.01l-3.02-8.12c-.21-.56-.54-.56-.75,0l-2.99,8.11h0Z"/>
  <path class="cls-1" d="m255.4,68.98c-1.74,0-3.35-.32-4.83-.96-1.49-.64-2.79-1.52-3.92-2.65-1.13-1.13-2.01-2.44-2.64-3.94s-.94-3.1-.94-4.81.31-3.32.94-4.81c.63-1.5,1.5-2.81,2.62-3.94s2.42-2.02,3.91-2.65c1.48-.64,3.09-.96,4.83-.96,1.92,0,3.73.37,5.43,1.1,1.7.73,3.49,2.44,3.49,2.44.43.41.42,1.07-.02,1.47l-1.28,1.16c-.44.4-1.14.38-1.56-.04,0,0-1.07-1.08-2.25-1.61-1.19-.54-2.45-.81-3.8-.81-1.16,0-2.23.22-3.2.65s-1.82,1.04-2.55,1.83c-.73.79-1.3,1.71-1.71,2.76s-.62,2.19-.62,3.43.21,2.38.62,3.44c.41,1.06.99,1.98,1.73,2.76.74.78,1.61,1.39,2.59,1.83s2.07.67,3.25.67c1.28,0,2.43-.27,3.46-.8,1.03-.54,1.88-1.28,2.55-2.24.67-.96.98-2.17.98-2.17.15-.58-.22-1.05-.81-1.05h-4.97c-.59,0-1.08-.49-1.08-1.08v-1.37c0-.59.49-1.08,1.08-1.08h9.32c.59,0,1.08.3,1.08.67s-.04,1.15-.09,1.74c0,0-.2,2.26-.78,3.72s-1.4,2.75-2.45,3.86c-1.05,1.11-2.28,1.96-3.7,2.57s-2.97.91-4.66.91"/>
  <path class="cls-1" d="m272.92,68.6c-.59,0-1.08-.49-1.08-1.08v-21.82c0-.59.49-1.08,1.08-1.08h15c.59,0,1.08.49,1.08,1.08v1.33c0,.59-.49,1.08-1.08,1.08h-10.89c-.59,0-1.08.49-1.08,1.08v4.52c0,.59.49,1.08,1.08,1.08h6.95c.59,0,1.08.49,1.08,1.08v1.27c0,.59-.49,1.08-1.08,1.08h-6.95c-.59,0-1.08.49-1.08,1.08v4.72c0,.59.49,1.08,1.08,1.08h11.03c.59,0,1.08.49,1.08,1.08v1.33c0,.59-.49,1.08-1.08,1.08h-15.14,0Z"/>
</svg>