<?xml version="1.0" encoding="utf-8"?>
<!-- Generator: Adobe Illustrator 27.0.0, SVG Export Plug-In . SVG Version: 6.00 Build 0)  -->
<svg version="1.1" xmlns="http://www.w3.org/2000/svg" xmlns:xlink="http://www.w3.org/1999/xlink" x="0px" y="0px"
	 viewBox="0 0 512 512" style="enable-background:new 0 0 512 512;" xml:space="preserve" fill="#8C2122">
<style type="text/css">
	.st0{fill:#FFFFFF;}
	.st1{fill-rule:evenodd;clip-rule:evenodd;fill:#FFFFFF;}
	.st2{fill:#8C2122;}
	.st3{fill:#162045;}
</style>
<g id="Pinterest">
</g>
<g id="WhatsApp">
</g>
<g id="Facebook">
</g>
<g id="Twitter">
</g>
<g id="YouTube">
</g>
<g id="Instagram">
</g>
<g id="LinkedIn">
</g>
<g id="Business">
</g>
<g id="Getting_Quotes">
</g>
<g id="Comments">
</g>
<g id="Medicare">
</g>
<g id="Time">
</g>
<g id="Arrows">
</g>
<g id="Video">
</g>
<g id="Health_Insurance">
	<g>
		<g>
			<path d="M255.93,476.28L143.14,363.5l25.15-25.15l87.63,87.63L429.31,252.6c41.43-41.43,41.43-108.84,0-150.26
				c-41.43-41.43-108.84-41.43-150.26,0l-23.12,23.11l-23.11-23.11c-41.36-41.36-108.62-41.42-150.07-0.2l-0.2,0.21
				c-35.31,35.31-40.94,90.73-14.54,132.17h81.5l57.96-80.62l38.11,94.89l36.12-75.86l42.25,61.06h35.94v35.57h-54.58l-17.91-25.88
				l-44.6,93.65L198.58,227.2l-30.83,42.89H49.91l-5.34-7.04C2.14,207.09,7.52,127.46,57.02,77.58l0.39-0.39
				c54.63-54.63,143.09-55.29,198.53-1.99c55.44-53.29,143.9-52.63,198.52,1.99c26.78,26.78,41.54,62.4,41.54,100.28
				c0,37.88-14.75,73.49-41.54,100.28L255.93,476.28z"/>
		</g>
	</g>
</g>
<g id="Share">
</g>
<g id="Search">
</g>
<g id="Send">
</g>
<g id="Filter">
</g>
<g id="Location">
</g>
<g id="Like">
</g>
<g id="Compare">
</g>
<g id="Live_Chat">
</g>
<g id="Life_Insurance">
</g>
<g id="Chertificate">
</g>
<g id="Saving_Money">
</g>
<g id="Top_rates">
</g>
<g id="Auto_Insurance">
</g>
<g id="Burger_Menu">
</g>
<g id="Date">
</g>
<g id="Motorcycle_Insurance">
</g>
<g id="Home">
</g>
<g id="Credit_Card">
</g>
<g id="No_fee">
</g>
<g id="Travel">
</g>
<g id="Students">
</g>
<g id="Rewards">
</g>
<g id="Credit_Cards">
</g>
<g id="Cash_Back">
</g>
<g id="CC_Icon">
</g>
<g id="Update_Date">
</g>
</svg>
