<?xml version="1.0" encoding="utf-8"?>
<!-- Generator: Adobe Illustrator 27.0.0, SVG Export Plug-In . SVG Version: 6.00 Build 0)  -->
<svg version="1.1" xmlns="http://www.w3.org/2000/svg" xmlns:xlink="http://www.w3.org/1999/xlink" x="0px" y="0px"
	 viewBox="0 0 512 512" style="enable-background:new 0 0 512 512;" xml:space="preserve" fill="#8C2122">
<style type="text/css">
	.st0{fill:#FFFFFF;}
	.st1{fill-rule:evenodd;clip-rule:evenodd;fill:#FFFFFF;}
	.st2{fill:#8C2122;}
	.st3{fill:#162045;}
</style>
<g id="Pinterest">
</g>
<g id="WhatsApp">
</g>
<g id="Facebook">
</g>
<g id="Twitter">
</g>
<g id="YouTube">
</g>
<g id="Instagram">
</g>
<g id="LinkedIn">
</g>
<g id="Business">
</g>
<g id="Getting_Quotes">
</g>
<g id="Comments">
</g>
<g id="Medicare">
</g>
<g id="Time">
</g>
<g id="Arrows">
</g>
<g id="Video">
</g>
<g id="Health_Insurance">
</g>
<g id="Share">
</g>
<g id="Search">
</g>
<g id="Send">
</g>
<g id="Filter">
</g>
<g id="Location">
</g>
<g id="Like">
</g>
<g id="Compare">
</g>
<g id="Live_Chat">
</g>
<g id="Life_Insurance">
</g>
<g id="Chertificate">
</g>
<g id="Saving_Money">
</g>
<g id="Top_rates">
</g>
<g id="Auto_Insurance">
</g>
<g id="Burger_Menu">
</g>
<g id="Date">
</g>
<g id="Motorcycle_Insurance">
	<g>
		<g>
			<g>
				<path d="M383.69,496c-10.22,0-20.49-1.99-30.24-6.03L17.21,350.63v-95.84C17.21,123.12,124.33,16,256,16
					c131.67,0,238.79,107.12,238.79,238.79v195.39l-33.9-16.81c-4.2,19.97-16.03,37.72-33.38,49.31
					C414.31,491.5,399.06,496,383.69,496z M52.77,326.88l314.3,130.24c13.61,5.65,28.44,4.18,40.69-4
					c12.25-8.19,19.27-21.33,19.27-36.06v-0.48l-176-87.28v-93c0-12.27,5.18-24.06,14.22-32.35c9.04-8.29,21.23-12.45,33.45-11.39
					l154.6,13.34C431.35,117.37,351.22,51.56,256,51.56c-112.06,0-203.23,91.17-203.23,203.23V326.88z M286.58,307.24l172.65,85.62
					V254.79c0-4.27-0.13-8.52-0.39-12.72l-163.2-14.09c-3.18-0.28-5.35,1.23-6.36,2.17c-1.01,0.92-2.7,2.96-2.7,6.15V307.24z"/>
			</g>
		</g>
		<g>
			<path d="M148.93,301.38c-30.73,0-55.72-25-55.72-55.73c0-30.72,25-55.72,55.72-55.72s55.72,25,55.72,55.72
				C204.65,276.38,179.65,301.38,148.93,301.38z M148.93,225.49c-11.12,0-20.16,9.05-20.16,20.16c0,11.12,9.05,20.17,20.16,20.17
				c11.12,0,20.16-9.05,20.16-20.17C169.09,234.54,160.04,225.49,148.93,225.49z"/>
		</g>
	</g>
</g>
<g id="Home">
</g>
<g id="Credit_Card">
</g>
<g id="No_fee">
</g>
<g id="Travel">
</g>
<g id="Students">
</g>
<g id="Rewards">
</g>
<g id="Credit_Cards">
</g>
<g id="Cash_Back">
</g>
<g id="CC_Icon">
</g>
<g id="Update_Date">
</g>
</svg>
