<?xml version="1.0" encoding="utf-8"?>
<!-- Generator: Adobe Illustrator 27.0.0, SVG Export Plug-In . SVG Version: 6.00 Build 0)  -->
<svg version="1.1" xmlns="http://www.w3.org/2000/svg" xmlns:xlink="http://www.w3.org/1999/xlink" x="0px" y="0px"
	 viewBox="0 0 512 512" style="enable-background:new 0 0 512 512;" xml:space="preserve" fill="#A7ADC4">
<style type="text/css">
	.st0{fill:#FFFFFF;}
	.st1{fill-rule:evenodd;clip-rule:evenodd;fill:#FFFFFF;}
	.st2{fill:#8C2122;}
	.st3{fill:#162045;}
</style>

<g id="Location">
	<g>
		<path d="M256,110.22c-47.11,0-85.44,38.33-85.44,85.43s38.33,85.43,85.44,85.43s85.44-38.33,85.44-85.43S303.11,110.22,256,110.22
			z M256,244.83c-27.11,0-49.18-22.06-49.18-49.18s22.06-49.18,49.18-49.18c27.12,0,49.18,22.06,49.18,49.18
			S283.12,244.83,256,244.83z"/>
		<path d="M256,16C152.42,16,68.16,100.27,68.16,203.84c0,61.82,30,128.52,89.16,198.26c43.17,50.89,85.82,83.97,87.61,85.36
			L256,496l11.07-8.54c1.8-1.38,44.44-34.47,87.61-85.36c59.16-69.74,89.16-136.45,89.16-198.26C443.84,100.27,359.58,16,256,16z
			 M255.99,449.63c-36.65-31.19-151.57-137.65-151.57-245.79c0-83.58,68-151.59,151.58-151.59s151.59,68,151.59,151.59
			C407.59,311.8,292.63,418.4,255.99,449.63z"/>
	</g>
</g>

</svg>
