<?xml version="1.0" encoding="utf-8"?>
<!-- Generator: Adobe Illustrator 27.0.0, SVG Export Plug-In . SVG Version: 6.00 Build 0)  -->
<svg version="1.1" xmlns="http://www.w3.org/2000/svg" xmlns:xlink="http://www.w3.org/1999/xlink" x="0px" y="0px"
	 viewBox="0 0 512 512" style="enable-background:new 0 0 512 512;" xml:space="preserve" fill="#8C2122">
<style type="text/css">
	.st0{fill:#FFFFFF;}
	.st1{fill-rule:evenodd;clip-rule:evenodd;fill:#FFFFFF;}
	.st2{fill:#8C2122;}
	.st3{fill:#162045;}
</style>
<g id="Pinterest">
</g>
<g id="WhatsApp">
</g>
<g id="Facebook">
</g>
<g id="Twitter">
</g>
<g id="YouTube">
</g>
<g id="Instagram">
</g>
<g id="LinkedIn">
</g>
<g id="Business">
</g>
<g id="Getting_Quotes">
</g>
<g id="Comments">
</g>
<g id="Medicare">
	<g>
		<polygon points="199.16,345.51 199.16,381.88 237.82,381.88 237.82,420.54 274.18,420.54 274.18,381.88 312.84,381.88 
			312.84,345.51 274.18,345.51 274.18,306.86 237.82,306.86 237.82,345.51 		"/>
		<path d="M446.31,231.93V81.1L381.22,16H65.69v180.87H29.6v262.59c0,20.15,16.4,36.54,36.55,36.54h379.71
			c20.15,0,36.55-16.39,36.55-36.54V231.93H446.31z M102.05,52.36h249.94v57.96h57.95v121.6H225.14l-40.31-35.06h-82.77V52.36z
			 M445.86,459.64l-379.9-0.18V233.23h105.26l40.31,35.06h234.49L445.86,459.64z"/>
	</g>
</g>
<g id="Time">
</g>
<g id="Arrows">
</g>
<g id="Video">
</g>
<g id="Health_Insurance">
</g>
<g id="Share">
</g>
<g id="Search">
</g>
<g id="Send">
</g>
<g id="Filter">
</g>
<g id="Location">
</g>
<g id="Like">
</g>
<g id="Compare">
</g>
<g id="Live_Chat">
</g>
<g id="Life_Insurance">
</g>
<g id="Chertificate">
</g>
<g id="Saving_Money">
</g>
<g id="Top_rates">
</g>
<g id="Auto_Insurance">
</g>
<g id="Burger_Menu">
</g>
<g id="Date">
</g>
<g id="Motorcycle_Insurance">
</g>
<g id="Home">
</g>
<g id="Credit_Card">
</g>
<g id="No_fee">
</g>
<g id="Travel">
</g>
<g id="Students">
</g>
<g id="Rewards">
</g>
<g id="Credit_Cards">
</g>
<g id="Cash_Back">
</g>
<g id="CC_Icon">
</g>
<g id="Update_Date">
</g>
</svg>
