<?xml version="1.0" encoding="utf-8"?>
<!-- Generator: Adobe Illustrator 27.0.0, SVG Export Plug-In . SVG Version: 6.00 Build 0)  -->
<svg version="1.1" xmlns="http://www.w3.org/2000/svg" xmlns:xlink="http://www.w3.org/1999/xlink" x="0px" y="0px"
	 viewBox="0 0 512 512" style="enable-background:new 0 0 512 512;" xml:space="preserve" fill="#fff">
<style type="text/css">
	.st0{fill:#FFFFFF;}
	.st1{fill-rule:evenodd;clip-rule:evenodd;fill:#FFFFFF;}
	.st2{fill:#8C2122;}
	.st3{fill:#162045;}
</style>

<g id="Filter">
	<g>
		<path d="M398.91,250.27c53.53,0,97.09-43.55,97.09-97.08S452.45,56.1,398.91,56.1c-46.07,0-84.67,32.29-94.56,75.4H37.69v43.38
			h266.67C314.25,217.98,352.84,250.27,398.91,250.27z M398.91,99.47c29.62,0,53.71,24.09,53.71,53.71s-24.09,53.71-53.71,53.71
			c-29.62,0-53.71-24.09-53.71-53.71S369.3,99.47,398.91,99.47z"/>
		<path d="M113.09,261.73c-53.53,0-97.09,43.55-97.09,97.08s43.55,97.09,97.09,97.09c46.07,0,84.67-32.29,94.56-75.4h266.67v-43.38
			H207.64C197.75,294.02,159.16,261.73,113.09,261.73z M113.09,412.53c-29.62,0-53.71-24.09-53.71-53.71
			c0-29.62,24.09-53.71,53.71-53.71s53.71,24.09,53.71,53.71C166.8,388.43,142.7,412.53,113.09,412.53z"/>
	</g>
</g>

</svg>
