<?xml version="1.0" encoding="utf-8"?>
<!-- Generator: Adobe Illustrator 27.0.0, SVG Export Plug-In . SVG Version: 6.00 Build 0)  -->
<svg version="1.1" xmlns="http://www.w3.org/2000/svg" xmlns:xlink="http://www.w3.org/1999/xlink" x="0px" y="0px"
	 viewBox="0 0 512 512" style="enable-background:new 0 0 512 512;" xml:space="preserve">
<style type="text/css">
	.st0{fill:#FFFFFF;}
	.st1{fill-rule:evenodd;clip-rule:evenodd;fill:#FFFFFF;}
	.st2{fill:#8C2122;}
	.st3{fill:#162045;}
</style>
<g id="Pinterest">
</g>
<g id="WhatsApp">
</g>
<g id="Facebook">
</g>
<g id="Twitter">
</g>
<g id="YouTube">
</g>
<g id="Instagram">
</g>
<g id="LinkedIn">
</g>
<g id="Business">
</g>
<g id="Getting_Quotes">
</g>
<g id="Comments">
</g>
<g id="Medicare">
</g>
<g id="Time">
</g>
<g id="Arrows">
</g>
<g id="Video">
</g>
<g id="Health_Insurance">
</g>
<g id="Share">
</g>
<g id="Search">
	<path d="M495.95,467.1l-130.41-130.4c28.45-34.95,43.92-78.25,43.92-123.93c0-52.56-20.47-101.97-57.63-139.13
		C314.68,36.47,265.26,16,212.71,16c-52.55,0-101.97,20.47-139.13,57.63c-76.71,76.72-76.71,201.54,0,278.26
		c37.16,37.16,86.58,57.63,139.13,57.63c45.68,0,88.98-15.47,123.93-43.92L467.05,496L495.95,467.1z M99.88,325.59
		c-62.21-62.22-62.21-163.45,0-225.66c30.14-30.14,70.21-46.74,112.83-46.74s82.69,16.6,112.83,46.74
		c30.14,30.14,46.74,70.21,46.74,112.83c0,42.62-16.6,82.69-46.74,112.83c-30.14,30.14-70.21,46.74-112.83,46.74
		S130.02,355.73,99.88,325.59z"/>
</g>
<g id="Send">
</g>
<g id="Filter">
</g>
<g id="Location">
</g>
<g id="Like">
</g>
<g id="Compare">
</g>
<g id="Live_Chat">
</g>
<g id="Life_Insurance">
</g>
<g id="Chertificate">
</g>
<g id="Saving_Money">
</g>
<g id="Top_rates">
</g>
<g id="Auto_Insurance">
</g>
<g id="Burger_Menu">
</g>
<g id="Date">
</g>
<g id="Motorcycle_Insurance">
</g>
<g id="Home">
</g>
<g id="Credit_Card">
</g>
<g id="No_fee">
</g>
<g id="Travel">
</g>
<g id="Students">
</g>
<g id="Rewards">
</g>
<g id="Credit_Cards">
</g>
<g id="Cash_Back">
</g>
<g id="CC_Icon">
</g>
<g id="Update_Date">
</g>
</svg>
