<?xml version="1.0" encoding="utf-8"?>
<!-- Generator: Adobe Illustrator 27.0.0, SVG Export Plug-In . SVG Version: 6.00 Build 0)  -->
<svg version="1.1" xmlns="http://www.w3.org/2000/svg" xmlns:xlink="http://www.w3.org/1999/xlink" x="0px" y="0px"
	 viewBox="0 0 512 512" style="enable-background:new 0 0 512 512;" xml:space="preserve" fill="#8C2122">
<style type="text/css">
	.st0{fill:#FFFFFF;}
	.st1{fill-rule:evenodd;clip-rule:evenodd;fill:#FFFFFF;}
	.st2{fill:#8C2122;}
	.st3{fill:#162045;}
</style>
<g id="Pinterest">
</g>
<g id="WhatsApp">
</g>
<g id="Facebook">
</g>
<g id="Twitter">
</g>
<g id="YouTube">
</g>
<g id="Instagram">
</g>
<g id="LinkedIn">
</g>
<g id="Business">
</g>
<g id="Getting_Quotes">
</g>
<g id="Comments">
</g>
<g id="Medicare">
</g>
<g id="Time">
</g>
<g id="Arrows">
</g>
<g id="Video">
</g>
<g id="Health_Insurance">
</g>
<g id="Share">
</g>
<g id="Search">
</g>
<g id="Send">
</g>
<g id="Filter">
</g>
<g id="Location">
</g>
<g id="Like">
</g>
<g id="Compare">
</g>
<g id="Live_Chat">
</g>
<g id="Life_Insurance">
	<g>
		<path d="M256,15.91L57.98,103.48v133.44c0,80.99,33.41,151.24,96.63,203.16c47.22,38.79,94.19,53.59,96.17,54.2l5.23,1.61
			l5.23-1.61c1.98-0.61,48.94-15.42,96.17-54.2c63.21-51.92,96.63-122.17,96.63-203.16V103.48L256,15.91z M418.65,236.93
			c0,154.05-133.71,211.21-162.65,221.77c-28.94-10.56-162.65-67.73-162.65-221.77V126.52L256,54.58l162.65,71.93V236.93z"/>
		<polygon points="238.31,176.71 238.31,239.59 175.43,239.59 175.43,274.97 238.31,274.97 238.31,337.85 273.69,337.85 
			273.69,274.97 336.57,274.97 336.57,239.59 273.69,239.59 273.69,176.71 		"/>
	</g>
</g>
<g id="Chertificate">
</g>
<g id="Saving_Money">
</g>
<g id="Top_rates">
</g>
<g id="Auto_Insurance">
</g>
<g id="Burger_Menu">
</g>
<g id="Date">
</g>
<g id="Motorcycle_Insurance">
</g>
<g id="Home">
</g>
<g id="Credit_Card">
</g>
<g id="No_fee">
</g>
<g id="Travel">
</g>
<g id="Students">
</g>
<g id="Rewards">
</g>
<g id="Credit_Cards">
</g>
<g id="Cash_Back">
</g>
<g id="CC_Icon">
</g>
<g id="Update_Date">
</g>
</svg>
